<svg xmlns="http://www.w3.org/2000/svg" width="223" height="30" viewBox="0 0 223 30"><g fill="none" fill-rule="evenodd"><rect width="223" height="30" fill="#ff5e5b" rx="8"/><g fill-rule="nonzero"><path fill="#fff" d="M41.418 7h1.608c3.1 0 5.614 2.514 5.614 5.614v.33c0 3.101-2.514 5.615-5.614 5.615h-1.608v1.69a2.591 2.591 0 01-2.591 2.591H26.59A2.591 2.591 0 0124 20.249V8.296C24 7.58 24.58 7 25.296 7h16.122zm0 2.997v5.565h1.466a2.783 2.783 0 100-5.565h-1.466z"/><path fill="#ff5e5b" d="M32.36 12.277c.4-1.171 1.349-1.757 2.846-1.757 2.245 0 3.078 2.794 1.9 4.62-.784 1.218-2.366 2.758-4.746 4.62-2.38-1.862-3.962-3.402-4.747-4.62-1.177-1.826-.344-4.62 1.901-4.62 1.497 0 2.446.586 2.846 1.757z"/></g><path fill="#fff" fill-rule="nonzero" d="M66.2 19.14c-.672 0-1.27-.084-1.792-.252a4.148 4.148 0 01-1.47-.854c-.252-.224-.378-.471-.378-.742a.79.79 0 01.238-.567.771.771 0 01.574-.245c.177 0 .336.056.476.168.373.308.737.532 1.092.672.355.14.775.21 1.26.21.523 0 .973-.117 1.351-.35.378-.233.567-.523.567-.868 0-.42-.187-.749-.56-.987-.373-.238-.966-.418-1.778-.539-2.044-.299-3.066-1.25-3.066-2.856 0-.588.154-1.099.462-1.533a2.917 2.917 0 011.26-.994 4.458 4.458 0 011.778-.343c.588 0 1.141.089 1.659.266.518.177.95.41 1.295.7.27.215.406.462.406.742a.79.79 0 01-.238.567.756.756 0 01-.56.245.614.614 0 01-.378-.126c-.243-.196-.581-.376-1.015-.539-.434-.163-.824-.245-1.169-.245-.588 0-1.043.11-1.365.329-.322.22-.483.506-.483.861 0 .401.166.705.497.91.331.205.852.373 1.561.504.803.14 1.444.32 1.925.539.48.22.842.518 1.085.896s.364.88.364 1.505c0 .588-.166 1.104-.497 1.547a3.195 3.195 0 01-1.323 1.022 4.433 4.433 0 01-1.778.357zm10.626-7.63c.243 0 .443.082.602.245a.84.84 0 01.238.609v3.556c0 1.008-.278 1.797-.833 2.366-.555.57-1.346.854-2.373.854-1.027 0-1.815-.285-2.366-.854-.55-.57-.826-1.358-.826-2.366v-3.556a.84.84 0 01.238-.609.804.804 0 01.602-.245c.243 0 .443.082.602.245a.84.84 0 01.238.609v3.556c0 .57.126.992.378 1.267.252.275.63.413 1.134.413.513 0 .896-.138 1.148-.413.252-.275.378-.698.378-1.267v-3.556a.84.84 0 01.238-.609.804.804 0 01.602-.245zm6.538-.14a3.2 3.2 0 011.75.497c.523.331.936.791 1.239 1.379.303.588.455 1.255.455 2.002 0 .747-.15 1.416-.448 2.009a3.442 3.442 0 01-1.225 1.386 3.118 3.118 0 01-1.715.497c-.448 0-.87-.091-1.267-.273a3.36 3.36 0 01-.987-.665v2.744a.84.84 0 01-.238.609.804.804 0 01-.602.245.816.816 0 01-.602-.238.834.834 0 01-.238-.616v-8.582a.84.84 0 01.238-.609.804.804 0 01.602-.245c.243 0 .443.082.602.245a.84.84 0 01.238.609v.056c.224-.28.537-.525.938-.735.401-.21.821-.315 1.26-.315zm-.21 6.23c.597 0 1.087-.224 1.47-.672.383-.448.574-1.008.574-1.68 0-.672-.189-1.23-.567-1.673-.378-.443-.87-.665-1.477-.665-.607 0-1.101.222-1.484.665-.383.443-.574 1.001-.574 1.673 0 .672.191 1.232.574 1.68.383.448.877.672 1.484.672zm8.932-6.23a3.2 3.2 0 011.75.497c.523.331.936.791 1.239 1.379.303.588.455 1.255.455 2.002 0 .747-.15 1.416-.448 2.009a3.442 3.442 0 01-1.225 1.386 3.118 3.118 0 01-1.715.497c-.448 0-.87-.091-1.267-.273a3.36 3.36 0 01-.987-.665v2.744a.84.84 0 01-.238.609.804.804 0 01-.602.245.816.816 0 01-.602-.238.834.834 0 01-.238-.616v-8.582a.84.84 0 01.238-.609.804.804 0 01.602-.245c.243 0 .443.082.602.245a.84.84 0 01.238.609v.056c.224-.28.537-.525.938-.735.401-.21.821-.315 1.26-.315zm-.21 6.23c.597 0 1.087-.224 1.47-.672.383-.448.574-1.008.574-1.68 0-.672-.189-1.23-.567-1.673-.378-.443-.87-.665-1.477-.665-.607 0-1.101.222-1.484.665-.383.443-.574 1.001-.574 1.673 0 .672.191 1.232.574 1.68.383.448.877.672 1.484.672zm12.25-2.338c0 .747-.168 1.416-.504 2.009a3.56 3.56 0 01-1.379 1.379 3.873 3.873 0 01-1.925.49c-.71 0-1.353-.163-1.932-.49a3.575 3.575 0 01-1.372-1.379c-.336-.593-.504-1.262-.504-2.009 0-.747.168-1.416.504-2.009a3.625 3.625 0 011.372-1.386 3.819 3.819 0 011.932-.497c.7 0 1.342.166 1.925.497a3.61 3.61 0 011.379 1.386c.336.593.504 1.262.504 2.009zm-1.68 0c0-.457-.096-.866-.287-1.225a2.112 2.112 0 00-.77-.833 2.02 2.02 0 00-1.071-.294 2.02 2.02 0 00-1.071.294 2.112 2.112 0 00-.77.833c-.191.36-.287.768-.287 1.225 0 .457.096.863.287 1.218.191.355.448.63.77.826a2.02 2.02 0 001.071.294 2.02 2.02 0 001.071-.294c.322-.196.579-.471.77-.826.191-.355.287-.76.287-1.218zm6.972-3.892c.28 0 .516.08.707.238.191.159.287.345.287.56 0 .29-.075.506-.224.651a.739.739 0 01-.532.217c-.14 0-.299-.033-.476-.098a6.02 6.02 0 00-.189-.056 1.142 1.142 0 00-.315-.042c-.243 0-.476.075-.7.224-.224.15-.408.376-.553.679-.145.303-.217.665-.217 1.085v3.318a.84.84 0 01-.238.609.804.804 0 01-.602.245.804.804 0 01-.602-.245.84.84 0 01-.238-.609v-5.782a.84.84 0 01.238-.609.804.804 0 01.602-.245c.243 0 .443.082.602.245a.84.84 0 01.238.609v.182a2.12 2.12 0 01.924-.875c.401-.2.83-.301 1.288-.301zm5.796 6.048c.13 0 .25.063.357.189a.74.74 0 01.161.497c0 .252-.138.464-.413.637a1.716 1.716 0 01-.931.259c-.579 0-1.066-.124-1.463-.371s-.595-.772-.595-1.575V13.19h-.644a.76.76 0 01-.56-.224.76.76 0 01-.224-.56.72.72 0 01.224-.539.773.773 0 01.56-.217h.644v-.896c0-.243.082-.446.245-.609a.827.827 0 01.609-.245c.233 0 .43.082.588.245a.84.84 0 01.238.609v.896h.994a.76.76 0 01.56.224.76.76 0 01.224.56.72.72 0 01-.224.539.773.773 0 01-.56.217h-.994v3.794c0 .196.051.338.154.427.103.089.243.133.42.133.075 0 .177-.019.308-.056a.836.836 0 01.322-.07zm14.672-6.048c.924 0 1.563.282 1.918.847s.532 1.346.532 2.345v3.584a.84.84 0 01-.238.609.804.804 0 01-.602.245.804.804 0 01-.602-.245.84.84 0 01-.238-.609v-3.584c0-.513-.1-.917-.301-1.211-.2-.294-.553-.441-1.057-.441-.523 0-.931.156-1.225.469-.294.313-.441.707-.441 1.183v3.584a.84.84 0 01-.238.609.804.804 0 01-.602.245.804.804 0 01-.602-.245.84.84 0 01-.238-.609v-3.584c0-.513-.1-.917-.301-1.211-.2-.294-.553-.441-1.057-.441-.523 0-.931.156-1.225.469-.294.313-.441.707-.441 1.183v3.584a.84.84 0 01-.238.609.804.804 0 01-.602.245.804.804 0 01-.602-.245.84.84 0 01-.238-.609v-5.782a.84.84 0 01.238-.609.804.804 0 01.602-.245c.243 0 .443.082.602.245a.84.84 0 01.238.609v.224c.252-.336.572-.623.959-.861a2.424 2.424 0 011.295-.357c1.176 0 1.927.513 2.254 1.54.215-.392.539-.747.973-1.064a2.44 2.44 0 011.477-.476zm10.99 3.71a.719.719 0 01-.266.546.89.89 0 01-.588.21h-4.62c.112.55.369.982.77 1.295.401.313.854.469 1.358.469.383 0 .681-.035.896-.105.215-.07.385-.145.511-.224.126-.08.212-.133.259-.161.168-.084.327-.126.476-.126.196 0 .364.07.504.21.14.14.21.303.21.49 0 .252-.13.48-.392.686-.261.215-.611.397-1.05.546-.439.15-.882.224-1.33.224-.784 0-1.468-.163-2.051-.49a3.42 3.42 0 01-1.351-1.351c-.317-.574-.476-1.22-.476-1.939 0-.803.168-1.507.504-2.114.336-.607.78-1.071 1.33-1.393a3.438 3.438 0 011.764-.483 3.27 3.27 0 011.743.504c.546.336.982.789 1.309 1.358.327.57.49 1.185.49 1.848zm-3.542-2.17c-1.083 0-1.722.509-1.918 1.526h3.668v-.098c-.037-.392-.229-.728-.574-1.008a1.817 1.817 0 00-1.176-.42zm16.058 2.352c0 .747-.168 1.416-.504 2.009a3.56 3.56 0 01-1.379 1.379 3.873 3.873 0 01-1.925.49c-.71 0-1.353-.163-1.932-.49a3.575 3.575 0 01-1.372-1.379c-.336-.593-.504-1.262-.504-2.009 0-.747.168-1.416.504-2.009a3.625 3.625 0 011.372-1.386 3.819 3.819 0 011.932-.497c.7 0 1.342.166 1.925.497a3.61 3.61 0 011.379 1.386c.336.593.504 1.262.504 2.009zm-1.68 0c0-.457-.096-.866-.287-1.225a2.112 2.112 0 00-.77-.833 2.02 2.02 0 00-1.071-.294 2.02 2.02 0 00-1.071.294 2.112 2.112 0 00-.77.833c-.191.36-.287.768-.287 1.225 0 .457.096.863.287 1.218.191.355.448.63.77.826a2.02 2.02 0 001.071.294 2.02 2.02 0 001.071-.294c.322-.196.579-.471.77-.826.191-.355.287-.76.287-1.218zm7.084-3.892c.952 0 1.61.282 1.974.847.364.565.546 1.346.546 2.345v3.584a.84.84 0 01-.238.609.804.804 0 01-.602.245.804.804 0 01-.602-.245.84.84 0 01-.238-.609v-3.584c0-.513-.107-.917-.322-1.211-.215-.294-.583-.441-1.106-.441-.541 0-.966.156-1.274.469-.308.313-.462.707-.462 1.183v3.584a.84.84 0 01-.238.609.804.804 0 01-.602.245.804.804 0 01-.602-.245.84.84 0 01-.238-.609v-5.782a.84.84 0 01.238-.609.804.804 0 01.602-.245c.243 0 .443.082.602.245a.84.84 0 01.238.609v.238c.252-.336.581-.625.987-.868a2.558 2.558 0 011.337-.364zm15.904 6.174a.999.999 0 01.14.273.92.92 0 01.056.301.804.804 0 01-.287.63.977.977 0 01-.665.252.773.773 0 01-.63-.322l-3.038-4.004-1.33 1.274v2.198a.82.82 0 01-.245.616c-.163.159-.376.238-.637.238a.844.844 0 01-.623-.245.827.827 0 01-.245-.609v-8.092c0-.243.084-.446.252-.609a.886.886 0 01.644-.245c.252 0 .457.08.616.238a.834.834 0 01.238.616v3.808l4.48-4.41c.215-.215.443-.322.686-.322.215 0 .397.089.546.266.15.177.224.364.224.56 0 .196-.084.378-.252.546l-3.052 2.912 3.122 4.13zm8.722-2.282c0 .747-.168 1.416-.504 2.009a3.56 3.56 0 01-1.379 1.379 3.873 3.873 0 01-1.925.49c-.71 0-1.353-.163-1.932-.49a3.575 3.575 0 01-1.372-1.379c-.336-.593-.504-1.262-.504-2.009 0-.747.168-1.416.504-2.009a3.625 3.625 0 011.372-1.386 3.819 3.819 0 011.932-.497c.7 0 1.342.166 1.925.497a3.61 3.61 0 011.379 1.386c.336.593.504 1.262.504 2.009zm-1.68 0c0-.457-.096-.866-.287-1.225a2.112 2.112 0 00-.77-.833 2.02 2.02 0 00-1.071-.294 2.02 2.02 0 00-1.071.294 2.112 2.112 0 00-.77.833c-.191.36-.287.768-.287 1.225 0 .457.096.863.287 1.218.191.355.448.63.77.826a2.02 2.02 0 001.071.294 2.02 2.02 0 001.071-.294c.322-.196.579-.471.77-.826.191-.355.287-.76.287-1.218zm3.724.28a.84.84 0 01-.609-.238.804.804 0 01-.245-.602c0-.233.082-.43.245-.588a.84.84 0 01.609-.238h2.436c.243 0 .446.082.609.245a.827.827 0 01.245.609.765.765 0 01-.245.581.853.853 0 01-.609.231h-2.436zm8.498-5.418c-.317 0-.541.091-.672.273a.999.999 0 00-.196.595v.658h1.274c.224 0 .41.072.56.217.15.145.224.329.224.553a.737.737 0 01-.224.553.773.773 0 01-.56.217h-1.274v4.956a.84.84 0 01-.238.609.804.804 0 01-.602.245.804.804 0 01-.602-.245.84.84 0 01-.238-.609V13.19h-.756a.773.773 0 01-.56-.217.737.737 0 01-.224-.553c0-.224.075-.408.224-.553a.773.773 0 01.56-.217h.756v-.644c0-.7.24-1.27.721-1.708.48-.439 1.174-.658 2.079-.658.345 0 .646.07.903.21.257.14.385.355.385.644a.768.768 0 01-.196.546c-.13.14-.29.21-.476.21a.822.822 0 01-.147-.014 11.13 11.13 0 00-.161-.028 2.392 2.392 0 00-.56-.084zm3.822 8.022a.84.84 0 01-.238.609.804.804 0 01-.602.245.804.804 0 01-.602-.245.84.84 0 01-.238-.609v-5.782a.84.84 0 01.238-.609.804.804 0 01.602-.245c.243 0 .443.082.602.245a.84.84 0 01.238.609v5.782zm-.854-7.546c-.317 0-.541-.051-.672-.154-.13-.103-.196-.285-.196-.546v-.266c0-.261.07-.443.21-.546.14-.103.364-.154.672-.154.327 0 .555.051.686.154.13.103.196.285.196.546V9.9c0 .27-.068.455-.203.553-.135.098-.366.147-.693.147z"/></g></svg>